<mxfile host="app.diagrams.net" modified="2023-05-09T08:59:21.966Z" agent="Mozilla/5.0 (Windows NT 10.0; Win64; x64) AppleWebKit/537.36 (KHTML, like Gecko) Chrome/112.0.0.0 Safari/537.36" etag="dnWie6HMpv-zFQFrfIeb" version="21.2.9" type="github">
  <diagram name="Page-1" id="zDvWlv2PzLVGkBD7wB7h">
    <mxGraphModel dx="2306" dy="645" grid="1" gridSize="10" guides="1" tooltips="1" connect="1" arrows="1" fold="1" page="1" pageScale="1" pageWidth="850" pageHeight="1100" math="0" shadow="0">
      <root>
        <mxCell id="0" />
        <mxCell id="1" parent="0" />
        <mxCell id="ZRuhUlSN-h4tqwc1rDR1-11" style="edgeStyle=orthogonalEdgeStyle;rounded=0;orthogonalLoop=1;jettySize=auto;html=1;entryX=1;entryY=0.5;entryDx=0;entryDy=0;" edge="1" parent="1" source="ZRuhUlSN-h4tqwc1rDR1-1" target="ZRuhUlSN-h4tqwc1rDR1-6">
          <mxGeometry relative="1" as="geometry" />
        </mxCell>
        <mxCell id="ZRuhUlSN-h4tqwc1rDR1-13" style="edgeStyle=orthogonalEdgeStyle;rounded=0;orthogonalLoop=1;jettySize=auto;html=1;" edge="1" parent="1" source="ZRuhUlSN-h4tqwc1rDR1-1" target="ZRuhUlSN-h4tqwc1rDR1-2">
          <mxGeometry relative="1" as="geometry" />
        </mxCell>
        <mxCell id="ZRuhUlSN-h4tqwc1rDR1-1" value="Login Page" style="rounded=1;whiteSpace=wrap;html=1;" vertex="1" parent="1">
          <mxGeometry x="365" y="50" width="120" height="60" as="geometry" />
        </mxCell>
        <mxCell id="ZRuhUlSN-h4tqwc1rDR1-8" style="edgeStyle=orthogonalEdgeStyle;rounded=0;orthogonalLoop=1;jettySize=auto;html=1;" edge="1" parent="1" source="ZRuhUlSN-h4tqwc1rDR1-2" target="ZRuhUlSN-h4tqwc1rDR1-7">
          <mxGeometry relative="1" as="geometry" />
        </mxCell>
        <object label="" Yes="" id="ZRuhUlSN-h4tqwc1rDR1-10">
          <mxCell style="edgeStyle=orthogonalEdgeStyle;rounded=0;orthogonalLoop=1;jettySize=auto;html=1;entryX=0;entryY=0.5;entryDx=0;entryDy=0;" edge="1" parent="1" source="ZRuhUlSN-h4tqwc1rDR1-2" target="ZRuhUlSN-h4tqwc1rDR1-9">
            <mxGeometry relative="1" as="geometry" />
          </mxCell>
        </object>
        <mxCell id="ZRuhUlSN-h4tqwc1rDR1-2" value="Account Matched?" style="rhombus;whiteSpace=wrap;html=1;" vertex="1" parent="1">
          <mxGeometry x="370" y="180" width="110" height="100" as="geometry" />
        </mxCell>
        <mxCell id="ZRuhUlSN-h4tqwc1rDR1-28" style="edgeStyle=orthogonalEdgeStyle;rounded=0;orthogonalLoop=1;jettySize=auto;html=1;entryX=0.5;entryY=0;entryDx=0;entryDy=0;" edge="1" parent="1" source="ZRuhUlSN-h4tqwc1rDR1-6" target="ZRuhUlSN-h4tqwc1rDR1-27">
          <mxGeometry relative="1" as="geometry" />
        </mxCell>
        <mxCell id="ZRuhUlSN-h4tqwc1rDR1-6" value="Register" style="rounded=1;whiteSpace=wrap;html=1;" vertex="1" parent="1">
          <mxGeometry x="170" y="130" width="90" height="40" as="geometry" />
        </mxCell>
        <mxCell id="ZRuhUlSN-h4tqwc1rDR1-18" style="edgeStyle=orthogonalEdgeStyle;rounded=0;orthogonalLoop=1;jettySize=auto;html=1;entryX=0.5;entryY=0;entryDx=0;entryDy=0;" edge="1" parent="1" source="ZRuhUlSN-h4tqwc1rDR1-7" target="ZRuhUlSN-h4tqwc1rDR1-17">
          <mxGeometry relative="1" as="geometry">
            <Array as="points">
              <mxPoint x="425" y="465" />
              <mxPoint x="338" y="465" />
            </Array>
          </mxGeometry>
        </mxCell>
        <mxCell id="ZRuhUlSN-h4tqwc1rDR1-22" style="edgeStyle=orthogonalEdgeStyle;rounded=0;orthogonalLoop=1;jettySize=auto;html=1;" edge="1" parent="1" source="ZRuhUlSN-h4tqwc1rDR1-7" target="ZRuhUlSN-h4tqwc1rDR1-20">
          <mxGeometry relative="1" as="geometry" />
        </mxCell>
        <mxCell id="ZRuhUlSN-h4tqwc1rDR1-7" value="Home" style="rounded=1;whiteSpace=wrap;html=1;" vertex="1" parent="1">
          <mxGeometry x="372" y="360" width="106" height="50" as="geometry" />
        </mxCell>
        <mxCell id="ZRuhUlSN-h4tqwc1rDR1-14" style="edgeStyle=orthogonalEdgeStyle;rounded=0;orthogonalLoop=1;jettySize=auto;html=1;entryX=1;entryY=0.5;entryDx=0;entryDy=0;" edge="1" parent="1" source="ZRuhUlSN-h4tqwc1rDR1-9" target="ZRuhUlSN-h4tqwc1rDR1-1">
          <mxGeometry relative="1" as="geometry">
            <Array as="points">
              <mxPoint x="620" y="80" />
            </Array>
          </mxGeometry>
        </mxCell>
        <mxCell id="ZRuhUlSN-h4tqwc1rDR1-9" value="Redirect to Login" style="rounded=1;whiteSpace=wrap;html=1;" vertex="1" parent="1">
          <mxGeometry x="575" y="205" width="95" height="50" as="geometry" />
        </mxCell>
        <mxCell id="ZRuhUlSN-h4tqwc1rDR1-25" style="edgeStyle=orthogonalEdgeStyle;rounded=0;orthogonalLoop=1;jettySize=auto;html=1;entryX=0.5;entryY=0;entryDx=0;entryDy=0;" edge="1" parent="1" source="ZRuhUlSN-h4tqwc1rDR1-17" target="ZRuhUlSN-h4tqwc1rDR1-23">
          <mxGeometry relative="1" as="geometry" />
        </mxCell>
        <mxCell id="ZRuhUlSN-h4tqwc1rDR1-26" style="edgeStyle=orthogonalEdgeStyle;rounded=0;orthogonalLoop=1;jettySize=auto;html=1;entryX=0.5;entryY=0;entryDx=0;entryDy=0;" edge="1" parent="1" source="ZRuhUlSN-h4tqwc1rDR1-17" target="ZRuhUlSN-h4tqwc1rDR1-24">
          <mxGeometry relative="1" as="geometry" />
        </mxCell>
        <mxCell id="ZRuhUlSN-h4tqwc1rDR1-17" value="Library" style="rounded=1;whiteSpace=wrap;html=1;" vertex="1" parent="1">
          <mxGeometry x="280" y="520" width="115" height="40" as="geometry" />
        </mxCell>
        <mxCell id="ZRuhUlSN-h4tqwc1rDR1-20" value="Account Settings" style="rounded=1;whiteSpace=wrap;html=1;" vertex="1" parent="1">
          <mxGeometry x="460" y="520" width="115" height="40" as="geometry" />
        </mxCell>
        <mxCell id="ZRuhUlSN-h4tqwc1rDR1-23" value="Search Book" style="rounded=1;whiteSpace=wrap;html=1;" vertex="1" parent="1">
          <mxGeometry x="250" y="600" width="70" height="30" as="geometry" />
        </mxCell>
        <mxCell id="ZRuhUlSN-h4tqwc1rDR1-24" value="Show All books" style="rounded=1;whiteSpace=wrap;html=1;" vertex="1" parent="1">
          <mxGeometry x="355" y="600" width="70" height="30" as="geometry" />
        </mxCell>
        <mxCell id="ZRuhUlSN-h4tqwc1rDR1-30" style="edgeStyle=orthogonalEdgeStyle;rounded=0;orthogonalLoop=1;jettySize=auto;html=1;entryX=0.5;entryY=0;entryDx=0;entryDy=0;" edge="1" parent="1" source="ZRuhUlSN-h4tqwc1rDR1-27" target="ZRuhUlSN-h4tqwc1rDR1-29">
          <mxGeometry relative="1" as="geometry" />
        </mxCell>
        <mxCell id="ZRuhUlSN-h4tqwc1rDR1-27" value="Enter Username&lt;br&gt;Enter Password&lt;br&gt;Enter Fullname&lt;br&gt;Enter Birthdate" style="shape=parallelogram;perimeter=parallelogramPerimeter;whiteSpace=wrap;html=1;fixedSize=1;" vertex="1" parent="1">
          <mxGeometry x="145" y="250" width="140" height="60" as="geometry" />
        </mxCell>
        <mxCell id="ZRuhUlSN-h4tqwc1rDR1-33" style="edgeStyle=orthogonalEdgeStyle;rounded=0;orthogonalLoop=1;jettySize=auto;html=1;entryX=1;entryY=0.5;entryDx=0;entryDy=0;" edge="1" parent="1" source="ZRuhUlSN-h4tqwc1rDR1-29" target="ZRuhUlSN-h4tqwc1rDR1-31">
          <mxGeometry relative="1" as="geometry" />
        </mxCell>
        <mxCell id="ZRuhUlSN-h4tqwc1rDR1-40" style="edgeStyle=orthogonalEdgeStyle;rounded=0;orthogonalLoop=1;jettySize=auto;html=1;" edge="1" parent="1" source="ZRuhUlSN-h4tqwc1rDR1-29">
          <mxGeometry relative="1" as="geometry">
            <mxPoint x="115" y="500" as="targetPoint" />
          </mxGeometry>
        </mxCell>
        <mxCell id="ZRuhUlSN-h4tqwc1rDR1-29" value="Submitted according to standards" style="rhombus;whiteSpace=wrap;html=1;" vertex="1" parent="1">
          <mxGeometry x="60" y="350" width="110" height="80" as="geometry" />
        </mxCell>
        <mxCell id="ZRuhUlSN-h4tqwc1rDR1-32" style="edgeStyle=orthogonalEdgeStyle;rounded=0;orthogonalLoop=1;jettySize=auto;html=1;" edge="1" parent="1" source="ZRuhUlSN-h4tqwc1rDR1-31" target="ZRuhUlSN-h4tqwc1rDR1-1">
          <mxGeometry relative="1" as="geometry">
            <Array as="points">
              <mxPoint x="-35" y="40" />
              <mxPoint x="420" y="40" />
            </Array>
          </mxGeometry>
        </mxCell>
        <mxCell id="ZRuhUlSN-h4tqwc1rDR1-31" value="Redirect to Intro" style="rounded=1;whiteSpace=wrap;html=1;" vertex="1" parent="1">
          <mxGeometry x="-80" y="375" width="90" height="30" as="geometry" />
        </mxCell>
        <mxCell id="ZRuhUlSN-h4tqwc1rDR1-34" value="0" style="text;strokeColor=none;align=center;fillColor=none;html=1;verticalAlign=middle;whiteSpace=wrap;rounded=0;" vertex="1" parent="1">
          <mxGeometry x="496.25" y="220" width="42.5" height="10" as="geometry" />
        </mxCell>
        <mxCell id="ZRuhUlSN-h4tqwc1rDR1-35" value="1" style="text;strokeColor=none;align=center;fillColor=none;html=1;verticalAlign=middle;whiteSpace=wrap;rounded=0;" vertex="1" parent="1">
          <mxGeometry x="17.5" y="380" width="42.5" height="10" as="geometry" />
        </mxCell>
        <mxCell id="ZRuhUlSN-h4tqwc1rDR1-36" value="1" style="text;strokeColor=none;align=center;fillColor=none;html=1;verticalAlign=middle;whiteSpace=wrap;rounded=0;" vertex="1" parent="1">
          <mxGeometry x="417.5" y="300" width="42.5" height="10" as="geometry" />
        </mxCell>
        <mxCell id="ZRuhUlSN-h4tqwc1rDR1-41" value="0" style="text;strokeColor=none;align=center;fillColor=none;html=1;verticalAlign=middle;whiteSpace=wrap;rounded=0;" vertex="1" parent="1">
          <mxGeometry x="102.5" y="450" width="42.5" height="10" as="geometry" />
        </mxCell>
        <mxCell id="ZRuhUlSN-h4tqwc1rDR1-49" value="(ERR.CD:4)" style="rounded=1;whiteSpace=wrap;html=1;" vertex="1" parent="1">
          <mxGeometry x="70" y="500" width="90" height="30" as="geometry" />
        </mxCell>
      </root>
    </mxGraphModel>
  </diagram>
</mxfile>
